<svg>

    <symbol id="logo-mobile" viewBox="0 0 29 30" fill="none" xmlns="http://www.w3.org/2000/svg">
        <path d="M2.5 7.83c.24-.3.55-.72.8-1.02.73-.82.83-.93 1.5-1.53.2-.16.43-.36.67-.54-1.7 1.42-1.93 2.98-.36 3.95 2.18 1.29 6.98 1.01 10.76-.64 3.67-1.6 5.02-3.9 3.21-5.25a18 18 0 00-5.48-.06l-.21-.34.17-.56c1.18-.1 2.3-.08 3.26.08l.78.16a13.2 13.2 0 011.96.6c.43.16.62.23.97.4.38.17.76.37 1.12.59 2.89 1.77 1.1 5-4 7.22-5.06 2.21-11.53 2.56-14.42.81h-.01c-1.58-.99-1.75-2.41-.72-3.87zm13.2 12.4l-.04-1.99-1.45-1.57c-4.78 1.05-9.48.83-12.1-.68l-.03-.03C.6 15.07.23 13.92.34 12.67a14.78 14.78 0 00-.32 4.05c.06.98.64 1.89 1.8 2.6l.01.01c2.79 1.7 8.6 2.06 13.87.9zm6.03 2.28c-6.74 2.65-15.19 2.8-18.86.36.4.95.94 1.83 1.6 2.62 3.37 2.25 11.12 2.1 17.31-.32 3.63-1.43 5.91-3.32 6.51-5.09l.17-.53c.4-1.36.48-2.48.54-3.48-.07 2.17-2.7 4.65-7.27 6.44zm-14.9 5.1c.22.2.89 1 4.27 1.89.9.2 3.2.83 7.46-.1l.02-.37-.34-.52c-3.94.92-8.31.61-11.4-.9zm9.76-15.76l3.59 2.67s.76.54.04.92l-2.57 1.3-1.83-.67-.92.4 1.62 1.37v2.14l.96-.41.63-1.81s1.94-.73 2.7-1c.78-.27.68.65.68.65l-.38 4.39 1.26-.55 2.08-5.93s1.1-.52 1.88-.98c.78-.46 1.05-1.23 1.05-1.23s-.76-.32-1.63-.06c-.87.25-2 .7-2 .7l-5.9-2.44-1.26.54zm-7.6-8.42l2.44 1.9.67-.1-1.33-1.7s-.29-.35.1-.43l1.38-.29.75.58.5-.07-.57-.88.3-.98-.49.07-.57.74-1.4.13c-.4.03-.23-.39-.23-.39L11.3 0l-.66.1-1.77 2.5s-.59.11-1.01.23c-.43.12-.65.44-.65.44s.31.25.75.24c.45 0 1.04-.08 1.04-.08zm12.05 24.4l-1.58-.8-.36.12.93.82s.2.16 0 .25l-.75.3-.44-.19-.26.1.36.38-.03.55.27-.09.2-.45.78-.22c.22-.06.17.2.17.2l-.2 1.2.36-.12.7-1.6s.32-.12.55-.23a.7.7 0 00.32-.32s-.2-.1-.45-.05a7.1 7.1 0 00-.57.15z" fill="#fff"/>
    </symbol>


    <symbol id="logo-desktop" viewBox="0 0 216 32" xmlns="http://www.w3.org/2000/svg">
        <path d="M2.6 8.83c.23-.3.55-.72.8-1.02.77-.82.87-.93 1.56-1.53l.7-.54c-1.77 1.42-2 2.98-.38 3.95 2.27 1.29 7.23 1.01 11.14-.64 3.8-1.6 5.19-3.9 3.32-5.25-1.64-.3-3.6-.33-5.67-.06l-.22-.34.18-.56c1.22-.1 2.38-.08 3.37.08l.8.16a14.02 14.02 0 012.04.6c.44.16.64.23 1 .4.4.17.78.37 1.16.59 2.98 1.77 1.13 5-4.13 7.22-5.25 2.21-11.93 2.56-14.93.81h-.01c-1.63-.99-1.8-2.41-.74-3.87zm13.64 12.4l-.04-1.99-1.5-1.57c-4.95 1.05-9.8.83-12.51-.68l-.04-.03C.62 16.07.24 14.92.35 13.67a14.3 14.3 0 00-.33 4.05c.06.98.66 1.89 1.87 2.6v.01c2.89 1.7 8.9 2.06 14.35.9zm6.24 2.28c-6.98 2.65-15.71 2.8-19.51.36.41.95.97 1.83 1.65 2.62 3.49 2.25 11.5 2.1 17.91-.32 3.75-1.43 6.12-3.32 6.74-5.09l.17-.53c.42-1.36.5-2.48.56-3.48-.08 2.17-2.79 4.65-7.52 6.44zm-15.4 5.1c.21.2.9 1 4.4 1.89.94.2 3.32.83 7.71-.1l.03-.37-.35-.52c-4.07.92-8.6.61-11.8-.9zm10.08-15.76l3.71 2.67s.8.54.05.92l-2.67 1.3-1.89-.67-.95.4 1.68 1.37v2.14l1-.41.65-1.81s2-.73 2.8-1c.8-.27.69.65.69.65l-.4 4.39 1.31-.55 2.16-5.93s1.14-.52 1.94-.98c.8-.46 1.08-1.23 1.08-1.23s-.78-.32-1.68-.06c-.9.25-2.08.7-2.08.7l-6.1-2.44-1.3.54zM9.31 4.43l2.52 1.9.69-.1-1.38-1.7s-.3-.35.1-.44l1.43-.28.77.58.52-.07-.58-.88.3-.98-.5.07-.59.74-1.45.13c-.41.03-.24-.39-.24-.39L11.7 1l-.7.1-1.82 2.5s-.6.11-1.05.23c-.44.12-.67.44-.67.44s.32.25.78.24c.46 0 1.07-.08 1.07-.08zm12.45 24.4l-1.63-.8-.37.12.96.82s.2.16 0 .25l-.78.3-.45-.19-.27.1.38.38-.04.55.28-.09.21-.45.8-.22c.23-.06.18.2.18.2l-.22 1.2.38-.12.74-1.6s.33-.12.56-.23a.72.72 0 00.33-.32s-.21-.1-.47-.05c-.25.05-.59.15-.59.15zM46.94 12.28V31H41.7V12.28h-5.41l.51-3.94h15.26l-.5 3.94h-4.62zm11.07 4.96a5.48 5.48 0 011.6-2.69 3.8 3.8 0 012.59-.99c1 0 1.9.2 2.72.6l-1.12 3.88a6.25 6.25 0 00-1.7-.29c-.83 0-1.59.31-2.27.93-.66.62-1 1.53-1 2.72V31h-4.89V18.94l-.35-4.74 3.71-.48.58 3.52H58zm15.48 2.11c0-.7-.15-1.21-.45-1.53-.3-.35-.87-.52-1.73-.52-.85 0-2.26.31-4.22.93l-1.38-3c.73-.41 1.73-.78 3.01-1.13 1.3-.36 2.57-.54 3.81-.54 1.26 0 2.3.15 3.14.45.85.3 1.46.74 1.82 1.34.38.58.63 1.15.74 1.73.12.58.19 1.3.19 2.18v6.01c0 .8.07 1.43.22 1.92.17.5.53 1.03 1.06 1.6l-2.79 2.6a6.05 6.05 0 01-2.43-2.37h-.13a5.73 5.73 0 01-4.7 2.36c-3.07 0-4.6-1.59-4.6-4.76 0-1.69.47-2.95 1.43-3.78a8.78 8.78 0 014.23-1.73l2.78-.48v-1.28zm-3.8 6.75c0 1.05.55 1.57 1.66 1.57.85 0 1.58-.3 2.17-.9v-3c-1.36.19-2.34.46-2.94.8-.6.32-.9.83-.9 1.53zM89.75 13.7l4.48.51L90.02 31h-5.73l-4.45-16.83 4.74-.48 2.52 12.96h.2l2.46-12.96zm13.22-.13c2.14 0 3.7.59 4.7 1.76.84.96 1.35 2.56 1.54 4.8.07.9.1 2.02.1 3.36l-2.27.32h-6.6c0 1.26.24 2.2.71 2.85.47.62 1.3.93 2.5.93 1.21 0 2.67-.31 4.38-.93l1 3a12.65 12.65 0 01-6.34 1.73c-4.97 0-7.46-2.94-7.46-8.83 0-2.77.64-4.96 1.92-6.56 1.3-1.62 3.24-2.43 5.83-2.43zm1.1 4.54c-.22-.49-.7-.73-1.45-.73-.74 0-1.28.28-1.6.83-.32.53-.5 1.34-.54 2.43h3.9c0-1.21-.1-2.06-.32-2.53zm12.48 7.04c0 1.05.06 1.82.19 2.3.15.5.5 1.09 1.05 1.77l-3.52 2.59a11.88 11.88 0 01-2.1-2.85 9.73 9.73 0 01-.55-3.71V7.38l4.93-.54v18.3zm10.33-16.8h8.2c2.92 0 4.94.7 6.04 2.08a7.5 7.5 0 011.44 4.74 8.2 8.2 0 01-1.76 5.22 6.32 6.32 0 01-2.81 1.95c-1.24.47-2.73.7-4.48.7h-1.38V31h-5.25V8.34zm5.25 3.59v7.33h1.73c1.09 0 1.87-.3 2.34-.87.49-.57.73-1.48.73-2.72 0-1.26-.2-2.2-.6-2.81-.41-.62-1.23-.93-2.47-.93h-1.73zm20.04 1.63c1.17 0 2.2.18 3.07.54.87.37 1.56.84 2.05 1.41.5.56.91 1.25 1.21 2.08.5 1.37.74 3.04.74 5.03 0 3.05-.85 5.36-2.56 6.94-1.3 1.22-3.1 1.82-5.38 1.82-1.17 0-2.2-.18-3.07-.54a5.8 5.8 0 01-2.08-1.38 7.24 7.24 0 01-1.22-2.1c-.48-1.33-.73-3-.73-5.03 0-1.88.37-3.53 1.12-4.96 1.3-2.54 3.58-3.81 6.85-3.81zm1.85 9c0-1.95-.15-3.3-.44-4.04-.3-.77-.94-1.15-1.93-1.15-.95 0-1.57.36-1.85 1.09-.26.72-.38 2.04-.38 3.96s.14 3.27.44 4.04c.3.74.94 1.12 1.92 1.12.99 0 1.6-.36 1.86-1.06.25-.73.38-2.05.38-3.97zm11.79-5.32a5.48 5.48 0 011.6-2.69c.75-.66 1.61-.99 2.6-.99 1 0 1.9.2 2.71.6l-1.12 3.88a6.25 6.25 0 00-1.7-.29c-.83 0-1.58.31-2.27.93-.66.62-.99 1.53-.99 2.72V31h-4.9V18.94l-.35-4.74 3.72-.48.57 3.52h.13zm13.82-3.42h4.32l-.58 3.55h-3.74v7.33c0 1.08.15 1.84.45 2.27.3.42.8.64 1.53.64.3 0 .91-.1 1.83-.32l.86 2.85c-.4.32-1.07.6-1.98.86-.9.26-1.72.38-2.47.38-2.1 0-3.5-.53-4.16-1.6-.64-1.08-.96-2.85-.96-5.3v-7.11h-2.46l.45-3.2 2.1-.29.2-3.2 4.6-1.38v4.52zm13.7 5.53c0-.7-.16-1.21-.45-1.53-.3-.35-.88-.52-1.73-.52s-2.26.31-4.23.93l-1.37-3c.72-.41 1.73-.78 3-1.13 1.3-.36 2.58-.54 3.81-.54 1.26 0 2.3.15 3.14.45.85.3 1.46.74 1.82 1.34.39.58.63 1.15.74 1.73.13.58.2 1.3.2 2.18v6.01c0 .8.07 1.43.22 1.92.17.5.52 1.03 1.05 1.6l-2.78 2.6a6.07 6.07 0 01-2.43-2.37h-.13a5.73 5.73 0 01-4.7 2.36c-3.08 0-4.61-1.59-4.61-4.76 0-1.69.48-2.95 1.44-3.78a8.79 8.79 0 014.22-1.73l2.78-.48v-1.28zm-3.81 6.75c0 1.05.55 1.57 1.66 1.57.85 0 1.58-.3 2.18-.9v-3c-1.37.19-2.35.46-2.95.8-.6.32-.9.83-.9 1.53zm16.68-.96c0 1.05.07 1.82.2 2.3.14.5.5 1.09 1.05 1.77l-3.52 2.59a11.88 11.88 0 01-2.11-2.85 9.71 9.71 0 01-.55-3.71V7.38l4.93-.54v18.3z" fill="#fff"/>
    </symbol>

    <symbol id="bycicle" viewBox="0 0 100 100" fill="none" xmlns="http://www.w3.org/2000/svg">
        <rect width="100" height="100" rx="16" fill="#F2785C"/>
        <path d="M35.42 69.75c-1.94 0-3.8-.8-5.16-2.21a7.72 7.72 0 01-2.14-5.36c0-2 .77-3.93 2.14-5.35a7.16 7.16 0 015.16-2.22c1.93 0 3.79.8 5.15 2.22a7.72 7.72 0 012.14 5.35c0 2.01-.77 3.94-2.14 5.36a7.16 7.16 0 01-5.15 2.21zm0-18.38c-2.77 0-5.42 1.14-7.37 3.16A11.03 11.03 0 0025 62.18c0 2.87 1.1 5.62 3.05 7.65A10.22 10.22 0 0035.42 73c2.76 0 5.4-1.14 7.36-3.17a11.03 11.03 0 003.05-7.65c0-2.87-1.1-5.62-3.05-7.65a10.23 10.23 0 00-7.36-3.16zm20.41-4.33h8.75v-3.9h-6.66l-4.05-7.07a3.54 3.54 0 00-3.04-1.8c-.98 0-1.87.42-2.5 1.09l-7.7 7.98a3.65 3.65 0 00-1.05 2.62c0 1.36.7 2.5 1.77 3.18l6.98 4.39v10.82h3.75V50.28l-4.68-3.57 4.83-5.08 3.6 5.4zm8.75 22.71c-1.93 0-3.79-.8-5.15-2.21a7.72 7.72 0 01-2.14-5.36c0-2 .77-3.93 2.14-5.35a7.16 7.16 0 015.15-2.22c1.94 0 3.8.8 5.16 2.22a7.72 7.72 0 012.14 5.35c0 2.01-.77 3.94-2.14 5.36a7.16 7.16 0 01-5.16 2.21zm0-18.38c-2.76 0-5.4 1.14-7.36 3.16a11.03 11.03 0 00-3.05 7.65c0 2.87 1.1 5.62 3.05 7.65a10.08 10.08 0 0014.73 0c.97-1 1.73-2.2 2.26-3.5a11.18 11.18 0 00-2.26-11.8c-.97-1-2.12-1.8-3.38-2.34a10.08 10.08 0 00-3.99-.82zm-6.25-15.58a3.8 3.8 0 003.75-3.9A3.8 3.8 0 0058.33 28a3.8 3.8 0 00-3.75 3.9 3.8 3.8 0 003.75 3.89z" fill="#fff"/>
    </symbol>

    <symbol id="calendar" viewBox="0 0 100 100" fill="none" xmlns="http://www.w3.org/2000/svg">
        <rect width="100" height="100" rx="16" fill="#F2785C"/>
        <path d="M37.72 52.89a3.61 3.61 0 100-7.22 3.61 3.61 0 000 7.22zm15.9-3.61a3.61 3.61 0 11-7.23 0 3.61 3.61 0 017.22 0zm8.66 3.6a3.61 3.61 0 100-7.21 3.61 3.61 0 000 7.22zm-20.95 7.95a3.61 3.61 0 11-7.22 0 3.61 3.61 0 017.22 0zM50 64.44a3.61 3.61 0 100-7.22 3.61 3.61 0 000 7.22zM24 33.03A9.03 9.03 0 0133.03 24h33.94A9.03 9.03 0 0176 33.03v33.94A9.03 9.03 0 0166.97 76H33.03A9.03 9.03 0 0124 66.97V33.03zm9.03-5.42a5.42 5.42 0 00-5.42 5.42v2.53H72.4v-2.53a5.42 5.42 0 00-5.42-5.42H33.03zM27.6 66.97a5.42 5.42 0 005.42 5.42h33.94a5.42 5.42 0 005.42-5.42v-27.8H27.6v27.8z" fill="#fff"/>
    </symbol>

    <symbol id="plain" viewBox="0 0 100 100" fill="none" xmlns="http://www.w3.org/2000/svg">
        <rect width="100" height="100" rx="16" fill="#F2785C"/>
        <path d="M73.93 70.95c0 .55-.21 1.07-.6 1.45-.37.38-.89.6-1.42.6H35.49c-.54 0-1.05-.22-1.43-.6a2.06 2.06 0 011.43-3.5h36.42c.53 0 1.05.22 1.43.6.38.4.59.91.59 1.45zM80 50.5v6.14c0 .54-.21 1.06-.6 1.44-.37.39-.89.6-1.42.6H33.42a10 10 0 01-6.05-2.01 10.18 10.18 0 01-3.64-5.28L20.16 39.4a4.21 4.21 0 01.64-3.63 4.1 4.1 0 013.26-1.63h4.35a1.98 1.98 0 011.54.74l4.45 5.4h4.35l-2.27-6.89a4.13 4.13 0 012-4.94c.56-.3 1.2-.45 1.84-.45h4.27a1.98 1.98 0 011.5.66L56.6 40.27h13.27c2.69 0 5.26 1.08 7.16 3A10.29 10.29 0 0180 50.5zm-4.05 0a6.2 6.2 0 00-1.78-4.33 6.06 6.06 0 00-4.29-1.8H55.72a1.98 1.98 0 01-1.49-.67L43.71 32.1h-3.39l3.16 9.58a2.1 2.1 0 01-.28 1.84 2 2 0 01-1.64.84h-8.1a1.98 1.98 0 01-1.54-.74l-4.45-5.4h-3.44l3.57 12a6.11 6.11 0 005.82 4.37h42.53V50.5z" fill="#fff"/>
    </symbol>

    <symbol id="arrow" width="40" height="41" viewBox="0 0 40 41" fill="none" xmlns="http://www.w3.org/2000/svg">
        <path fill-rule="evenodd" clip-rule="evenodd" d="M2.5 20.5a1.25 1.25 0 011.25-1.25h29.48l-7.86-7.87a1.25 1.25 0 011.77-1.77l10 10a1.25 1.25 0 010 1.78l-10 10a1.25 1.25 0 01-1.78-1.78l7.87-7.86H3.75A1.25 1.25 0 012.5 20.5z" fill="#fff"/>
    </symbol>

    <symbol id="instagram" viewBox="0 0 34 34" fill="none" xmlns="http://www.w3.org/2000/svg">
        <path fill-rule="evenodd" clip-rule="evenodd" d="M10.47 1.5c1.64-.08 2.17-.1 6.36-.1s4.71.02 6.35.1c1.65.07 2.77.33 3.75.71 1.03.39 1.96 1 2.73 1.78.79.77 1.4 1.7 1.78 2.73.38.98.64 2.1.72 3.75.07 1.64.1 2.17.1 6.36s-.03 4.71-.1 6.36a11.31 11.31 0 01-.72 3.74 7.57 7.57 0 01-1.78 2.73c-.77.79-1.7 1.4-2.73 1.78-.98.38-2.1.64-3.74.72-1.65.08-2.17.1-6.36.1-4.2 0-4.72-.03-6.36-.1a11.31 11.31 0 01-3.75-.72A7.57 7.57 0 014 29.66a7.56 7.56 0 01-1.78-2.73c-.38-.98-.64-2.1-.72-3.74a109 109 0 01-.09-6.36c0-4.2.02-4.72.1-6.36.07-1.64.33-2.77.71-3.75C2.6 5.7 3.21 4.76 4 4c.77-.78 1.7-1.4 2.73-1.78.98-.38 2.1-.64 3.75-.72zm12.59 2.77c-1.63-.07-2.11-.09-6.23-.09-4.12 0-4.6.02-6.24.1-1.5.06-2.32.31-2.86.52-.72.28-1.23.62-1.77 1.16-.52.5-.91 1.1-1.16 1.77a8.53 8.53 0 00-.53 2.86c-.07 1.63-.09 2.12-.09 6.24s.02 4.6.1 6.23c.06 1.5.31 2.32.52 2.86.25.67.64 1.28 1.16 1.78.5.51 1.1.9 1.77 1.15.54.21 1.36.46 2.86.53 1.63.08 2.12.1 6.24.1s4.6-.02 6.23-.1a8.52 8.52 0 002.86-.53 4.79 4.79 0 001.78-1.15c.51-.5.9-1.1 1.15-1.78.21-.54.46-1.36.53-2.86.08-1.63.1-2.11.1-6.23 0-4.12-.02-4.6-.1-6.24a8.53 8.53 0 00-.53-2.86 4.79 4.79 0 00-1.15-1.77c-.5-.52-1.1-.91-1.78-1.16a8.53 8.53 0 00-2.86-.53zm-8.2 17.31a5.15 5.15 0 103.95-9.5 5.15 5.15 0 00-3.95 9.5zm-3.64-10.36a7.93 7.93 0 1111.21 11.21 7.93 7.93 0 01-11.2-11.2zm15.3-1.14a1.88 1.88 0 10-2.58-2.73 1.88 1.88 0 002.57 2.73z" fill="#F8F8F8"/>
    </symbol>

    <symbol id="youtube" width="35" height="34" viewBox="0 0 35 34" fill="none" xmlns="http://www.w3.org/2000/svg">
        <path d="M25.9 5.6H9.06a5.6 5.6 0 00-5.61 5.62v11.22a5.6 5.6 0 005.6 5.6H25.9a5.6 5.6 0 005.61-5.6V11.22a5.6 5.6 0 00-5.6-5.61z" stroke="#F8F8F8" stroke-width="4.17" stroke-linecap="round" stroke-linejoin="round"/>
        <path d="M21.69 16.83l-7.01-4.21v8.41l7-4.2z" stroke="#F8F8F8" stroke-width="4.17" stroke-linecap="round" stroke-linejoin="round"/>
    </symbol>

    <symbol id="twitter" width="34" height="34" viewBox="0 0 34 34" fill="none" xmlns="http://www.w3.org/2000/svg">
        <g clip-path="url(#clip0_72_17)">
            <path d="M33.46 6.92c-1.17.52-2.43.87-3.75 1.03a6.55 6.55 0 002.87-3.61c-1.28.76-2.68 1.3-4.15 1.58a6.53 6.53 0 00-11.13 5.96A18.55 18.55 0 013.84 5.05a6.53 6.53 0 002.02 8.73 6.52 6.52 0 01-2.96-.82v.08a6.53 6.53 0 005.24 6.4c-.96.27-1.97.3-2.95.12a6.54 6.54 0 006.1 4.53 13.1 13.1 0 01-9.67 2.71 18.47 18.47 0 0010.01 2.94c12.02 0 18.6-9.96 18.6-18.59l-.03-.84a13.28 13.28 0 003.26-3.38z" fill="#F8F8F8"/>
        </g>
        <defs>
            <clipPath id="clip0_72_17">
                <path fill="#fff" transform="translate(.3)" d="M0 0h33.65v33.65H0z"/>
            </clipPath>
        </defs>
    </symbol>

    <symbol id="facebook" viewBox="0 0 23 24" fill="none" xmlns="http://www.w3.org/2000/svg">
        <path d="M23 12.07A11.5 11.5 0 109.7 23.43v-8.04H6.78v-3.32H9.7V9.54c0-2.89 1.72-4.48 4.35-4.48 1.25 0 2.57.23 2.57.23v2.83h-1.45c-1.43 0-1.87.88-1.87 1.8v2.15h3.19l-.51 3.32H13.3v8.04A11.5 11.5 0 0023 12.07z" fill="#fff"/>
    </symbol>

    <symbol id="google" viewBox="0 0 25 24" fill="none" xmlns="http://www.w3.org/2000/svg">
        <path fill="#fff" d="M.5 0h24v24H.5z"/>
        <path fill-rule="evenodd" clip-rule="evenodd" d="M23.54 12.26c0-.81-.07-1.6-.2-2.35H12.5v4.45h6.19a5.29 5.29 0 01-2.3 3.47v2.88h3.72c2.18-2 3.43-4.95 3.43-8.45z" fill="#4285F4"/>
        <path fill-rule="evenodd" clip-rule="evenodd" d="M12.5 23.5c3.1 0 5.7-1.03 7.61-2.79l-3.72-2.88a6.91 6.91 0 01-3.89 1.1c-3 0-5.53-2.03-6.43-4.75H2.22v2.98A11.5 11.5 0 0012.5 23.5z" fill="#34A853"/>
        <path fill-rule="evenodd" clip-rule="evenodd" d="M6.07 14.19a6.91 6.91 0 010-4.37V6.84H2.22a11.5 11.5 0 000 10.32l3.85-2.97z" fill="#FBBC05"/>
        <path fill-rule="evenodd" clip-rule="evenodd" d="M12.5 5.07c1.69 0 3.2.58 4.4 1.72l3.3-3.3A11.5 11.5 0 002.22 6.84l3.84 2.98a6.85 6.85 0 016.43-4.74z" fill="#EA4335"/>
    </symbol>

    <symbol id="but-arrow" viewBox="0 0 10 10" fill="none" xmlns="http://www.w3.org/2000/svg">
        <path fill-rule="evenodd" clip-rule="evenodd" d="M.63 5a.31.31 0 01.3-.31h7.38L6.34 2.72a.31.31 0 01.44-.44l2.5 2.5a.31.31 0 010 .44l-2.5 2.5a.31.31 0 01-.44-.44L8.31 5.3H.94A.31.31 0 01.63 5z" fill="#fff"/>
    </symbol>


</svg>