<svg>
    <symbol id="home" viewBox="0 0 576 512" fill="#dddddd" xmlns="http://www.w3.org/2000/svg">
        <path d="M543.8 287.6c17 0 32-14 32-32.1 1-9-3-17-11-24L512 185V64c0-17.7-14.3-32-32-32h-32c-17.7 0-32 14.3-32 32v36.7L309.5 7c-6-5-14-7-21-7s-15 1-22 8L10 231.5c-7 7-10 15-10 24 0 18 14 32.1 32 32.1h32v69.7c-.1.9-.1 1.8-.1 2.8V472c0 22.1 17.9 40 40 40h16c1.2 0 2.4-.1 3.6-.2 1.5.1 3 .2 4.5.2h56c22.1 0 40-17.9 40-40v-88c0-17.7 14.3-32 32-32h64c17.7 0 32 14.3 32 32v88c0 22.1 17.9 40 40 40h56.5c1.4 0 2.8 0 4.2-.1 1.1.1 2.2.1 3.3.1h16c22.1 0 40-17.9 40-40v-16.2c.3-2.6.5-5.3.5-8.1l-.7-160.2h32z"/>
    </symbol>

    <symbol id="user" xmlns="http://www.w3.org/2000/svg" viewBox="0 0 448 512"  fill="#dddddd">
        <path d="M224 256A128 128 0 1 0 224 0a128 128 0 1 0 0 256zm-45.7 48C79.8 304 0 383.8 0 482.3C0 498.7 13.3 512 29.7 512H418.3c16.4 0 29.7-13.3 29.7-29.7C448 383.8 368.2 304 269.7 304H178.3z"/>
    </symbol>

    <symbol id="briefcase" xmlns="http://www.w3.org/2000/svg" viewBox="0 0 512 512"  fill="#dddddd">
        <path d="M184 48H328c4.4 0 8 3.6 8 8V96H176V56c0-4.4 3.6-8 8-8zm-56 8V96H64C28.7 96 0 124.7 0 160v96H192 320 512V160c0-35.3-28.7-64-64-64H384V56c0-30.9-25.1-56-56-56H184c-30.9 0-56 25.1-56 56zM512 288H320v32c0 17.7-14.3 32-32 32H224c-17.7 0-32-14.3-32-32V288H0V416c0 35.3 28.7 64 64 64H448c35.3 0 64-28.7 64-64V288z"/>
    </symbol>

    <symbol id="chat" xmlns="http://www.w3.org/2000/svg" viewBox="0 0 640 512"  fill="#dddddd">
        <path d="M208 352c114.9 0 208-78.8 208-176S322.9 0 208 0 0 78.8 0 176c0 38.6 14.7 74.3 39.6 103.4-3.5 9.4-8.7 17.7-14.2 24.7a114.69 114.69 0 01-17.6 18c-.5.4-.9.7-1.1.8l-.2.2C1 327.2-1.4 334.4.8 340.9S9.1 352 16 352c21.8 0 43.8-5.6 62.1-12.5 9.2-3.5 17.8-7.4 25.3-11.4C134.1 343.3 169.8 352 208 352zm240-176c0 112.3-99.1 196.9-216.5 207 24.3 74.4 104.9 129 200.5 129 38.2 0 73.9-8.7 104.7-23.9 7.5 4 16 7.9 25.2 11.4 18.3 6.9 40.3 12.5 62.1 12.5a16 16 0 0015.2-11.1c2.1-6.6-.2-13.8-5.8-17.9l-.2-.2c-.2-.2-.6-.4-1.1-.8-1-.8-2.5-2-4.3-3.7-3.6-3.3-8.5-8.1-13.3-14.3-5.5-7-10.7-15.4-14.2-24.7 24.9-29 39.6-64.7 39.6-103.4 0-92.8-84.9-168.9-192.6-175.5.4 5.1.6 10.3.6 15.5z"/>
    </symbol>

    <symbol id="right-arrow" xmlns="http://www.w3.org/2000/svg" viewBox="0 0 448 512"  fill="#fff">
        <path d="M438.6 278.6c12.5-12.5 12.5-32.8 0-45.3l-160-160c-12.5-12.5-32.8-12.5-45.3 0s-12.5 32.8 0 45.3L338.8 224 32 224c-17.7 0-32 14.3-32 32s14.3 32 32 32l306.7 0L233.4 393.4c-12.5 12.5-12.5 32.8 0 45.3s32.8 12.5 45.3 0l160-160z"/>
    </symbol>

    <symbol id="download" xmlns="http://www.w3.org/2000/svg" viewBox="0 0 512 512"  fill="#fff">
        <path d="M288 32c0-17.7-14.3-32-32-32s-32 14.3-32 32v242.7l-73.4-73.4c-12.5-12.5-32.8-12.5-45.3 0s-12.5 32.8 0 45.3l128 128a32.05 32.05 0 0045.3 0l128-128c12.5-12.5 12.5-32.8 0-45.3s-32.8-12.5-45.3 0L288 274.7V32zM64 352c-35.3 0-64 28.7-64 64v32c0 35.3 28.7 64 64 64h384c35.3 0 64-28.7 64-64v-32c0-35.3-28.7-64-64-64H346.5l-45.3 45.3c-25 25-65.5 25-90.5 0L165.5 352H64zm368 56a24 24 0 110 48 24 24 0 110-48z"/>
    </symbol>

    <symbol id="mail" xmlns="http://www.w3.org/2000/svg" viewBox="0 0 512 512"  fill="#ffb400">
        <path d="M48 64a48.01 48.01 0 00-28.8 86.4l217.6 163.2c11.4 8.5 27 8.5 38.4 0l217.6-163.2A48.01 48.01 0 00464 64H48zM0 176v208c0 35.3 28.7 64 64 64h384c35.3 0 64-28.7 64-64V176L294.4 339.2a63.9 63.9 0 01-76.8 0L0 176z"/>
    </symbol>

    <symbol id="phone" xmlns="http://www.w3.org/2000/svg" viewBox="0 0 448 512"  fill="#ffb400">
        <path d="M384 32c35.3 0 64 28.7 64 64v320c0 35.3-28.7 64-64 64H64c-35.3 0-64-28.7-64-64V96c0-35.3 28.7-64 64-64h320zm-90.7 96.7c-9.7-2.6-19.9 2.3-23.7 11.6l-20 48c-3.4 8.2-1 17.6 5.8 23.2l24.6 20.2a168.35 168.35 0 01-80.3 80.3l-20.2-24.7c-5.6-6.8-15-9.2-23.2-5.8l-48 20c-9.3 3.9-14.2 14-11.6 23.7l12 44C111.1 378 119 384 128 384c123.7 0 224-100.3 224-224 0-9-6-16.9-14.7-19.3l-44-12z"/>
    </symbol>

    <symbol id="send" xmlns="http://www.w3.org/2000/svg" viewBox="0 0 512 512"  fill="#fff">
        <path d="M498.1 5.6c10.1 7 15.4 19.1 13.5 31.2l-64 416a32.05 32.05 0 01-44 24.6L284 427.7l-68.5 74.1c-8.9 9.7-22.9 12.9-35.2 8.1S160 493.2 160 480v-83.6c0-4 1.5-7.8 4.2-10.7l167.6-182.9c5.8-6.3 5.6-16-.4-22s-15.7-6.4-22-.7L106 360.8l-88.3-44.2C7.1 311.3.3 300.7 0 288.9s5.9-22.8 16.1-28.7l448-256a32.1 32.1 0 0134 1.4z"/>
    </symbol>

    <symbol id="linkedin" xmlns="http://www.w3.org/2000/svg" viewBox="0 0 448 512"  fill="#dddddd">
        <path d="M100.28 448H7.4V148.9h92.88zM53.79 108.1C24.09 108.1 0 83.5 0 53.8a53.79 53.79 0 01107.58 0c0 29.7-24.1 54.3-53.79 54.3zM447.9 448h-92.68V302.4c0-34.7-.7-79.2-48.29-79.2-48.29 0-55.69 37.7-55.69 76.7V448h-92.78V148.9h89.08v40.8h1.3c12.4-23.5 42.69-48.3 87.88-48.3 94 0 111.28 61.9 111.28 142.3V448z"/>
    </symbol>

    <symbol id="git" xmlns="http://www.w3.org/2000/svg" viewBox="0 0 496 512"  fill="#dddddd">
        <path d="M165.9 397.4c0 2-2.3 3.6-5.2 3.6-3.3.3-5.6-1.3-5.6-3.6 0-2 2.3-3.6 5.2-3.6 3-.3 5.6 1.3 5.6 3.6zm-31.1-4.5c-.7 2 1.3 4.3 4.3 4.9 2.6 1 5.6 0 6.2-2s-1.3-4.3-4.3-5.2c-2.6-.7-5.5.3-6.2 2.3zm44.2-1.7c-2.9.7-4.9 2.6-4.6 4.9.3 2 2.9 3.3 5.9 2.6 2.9-.7 4.9-2.6 4.6-4.6-.3-1.9-3-3.2-5.9-2.9zM244.8 8C106.1 8 0 113.3 0 252c0 110.9 69.8 205.8 169.5 239.2 12.8 2.3 17.3-5.6 17.3-12.1 0-6.2-.3-40.4-.3-61.4 0 0-70 15-84.7-29.8 0 0-11.4-29.1-27.8-36.6 0 0-22.9-15.7 1.6-15.4 0 0 24.9 2 38.6 25.8 21.9 38.6 58.6 27.5 72.9 20.9 2.3-16 8.8-27.1 16-33.7-55.9-6.2-112.3-14.3-112.3-110.5 0-27.5 7.6-41.3 23.6-58.9-2.6-6.5-11.1-33.3 2.6-67.9 20.9-6.5 69 27 69 27 20-5.6 41.5-8.5 62.8-8.5s42.8 2.9 62.8 8.5c0 0 48.1-33.6 69-27 13.7 34.7 5.2 61.4 2.6 67.9 16 17.7 25.8 31.5 25.8 58.9 0 96.5-58.9 104.2-114.8 110.5 9.2 7.9 17 22.9 17 46.4 0 33.7-.3 75.4-.3 83.6 0 6.5 4.6 14.4 17.3 12.1C428.2 457.8 496 362.9 496 252 496 113.3 383.5 8 244.8 8zM97.2 352.9c-1.3 1-1 3.3.7 5.2 1.6 1.6 3.9 2.3 5.2 1 1.3-1 1-3.3-.7-5.2-1.6-1.6-3.9-2.3-5.2-1zm-10.8-8.1c-.7 1.3.3 2.9 2.3 3.9 1.6 1 3.6.7 4.3-.7.7-1.3-.3-2.9-2.3-3.9-2-.6-3.6-.3-4.3.7zm32.4 35.6c-1.6 1.3-1 4.3 1.3 6.2 2.3 2.3 5.2 2.6 6.5 1 1.3-1.3.7-4.3-1.3-6.2-2.2-2.3-5.2-2.6-6.5-1zm-11.4-14.7c-1.6 1-1.6 3.6 0 5.9 1.6 2.3 4.3 3.3 5.6 2.3 1.6-1.3 1.6-3.9 0-6.2-1.4-2.3-4-3.3-5.6-2z"/>
    </symbol>

    <symbol id="close" xmlns="http://www.w3.org/2000/svg" viewBox="0 0 384 512"  fill="#fff">
        <path d="M342.6 150.6c12.5-12.5 12.5-32.8 0-45.3s-32.8-12.5-45.3 0L192 210.7 86.6 105.4c-12.5-12.5-32.8-12.5-45.3 0s-12.5 32.8 0 45.3L146.7 256 41.4 361.4c-12.5 12.5-12.5 32.8 0 45.3s32.8 12.5 45.3 0L192 301.3l105.4 105.3c12.5 12.5 32.8 12.5 45.3 0s12.5-32.8 0-45.3L237.3 256l105.3-105.4z"/>
    </symbol>

</svg>